<?xml version="1.0" encoding="utf-8"?>
<!-- Generator: Adobe Illustrator 25.4.7, SVG Export Plug-In . SVG Version: 6.00 Build 0)  -->
<svg version="1.1" id="Layer_1" xmlns="http://www.w3.org/2000/svg" xmlns:xlink="http://www.w3.org/1999/xlink" x="0px" y="0px"
	 width="772px" height="170px" viewBox="0 0 772 170" style="enable-background:new 0 0 772 170;" xml:space="preserve">
<style type="text/css">
	.st0{clip-path:url(#SVGID_00000015349606700681731050000015146255661402301631_);}
</style>
<g>
	<g>
		<defs>
			<rect id="SVGID_1_" x="12.9" y="3.4" width="746.1" height="163.1"/>
		</defs>
		<clipPath id="SVGID_00000169548031057381048590000013849200383765337779_">
			<use xlink:href="#SVGID_1_"  style="overflow:visible;"/>
		</clipPath>
		<path style="clip-path:url(#SVGID_00000169548031057381048590000013849200383765337779_);" d="M628.3,164.9h21.2V92.1h88.5v72.8
			h21.2V3.4h-21.2v68.9h-88.5V3.4h-21.2V164.9z M517.6,117.6l58.2-78.2v125.5h20.9V3.4h-19.1l-60,80.5l-60-80.5h-19.3v161.5h21.1
			V39.4L517.6,117.6z M325.6,166.6H344L423.4,3.4H405L325.6,166.6z M224.2,145.8V91H262c21.4,0,32.3,11.8,32.3,27.5
			c0,15.9-10.9,27.3-32.5,27.3L224.2,145.8L224.2,145.8z M224.2,72.8V22.5H256c17.3,0,27.5,11.6,27.5,25.2c0,14.3-10.2,25-27.5,25
			H224.2z M203.1,164.9h57.8c32.8,0,54.1-20.2,54.1-47.1c0-21.6-12.3-33-28-38.7c10.2-6.4,17.3-17.1,17.3-33
			c0-22.7-18.2-42.8-48.2-42.8h-53L203.1,164.9L203.1,164.9z M92.3,117.6l58.2-78.2v125.5h20.9V3.4h-19.1l-60,80.5l-60-80.5H12.9
			v161.5h21.2V39.4L92.3,117.6z"/>
	</g>
</g>
</svg>
