<?xml version="1.0" encoding="utf-8"?>
<!-- Generator: Adobe Illustrator 25.4.7, SVG Export Plug-In . SVG Version: 6.00 Build 0)  -->
<svg version="1.1" id="Layer_1" xmlns="http://www.w3.org/2000/svg" xmlns:xlink="http://www.w3.org/1999/xlink" x="0px" y="0px"
	 width="772px" height="170px" viewBox="0 0 772 170" style="enable-background:new 0 0 772 170;" xml:space="preserve">
<g>
	<defs>
		<rect id="SVGID_1_" x="-4.38" y="-0.36" width="780.77" height="170.72"/>
	</defs>
	<clipPath id="SVGID_00000104695222772634937740000010649492267567364518_">
		<use xlink:href="#SVGID_1_"  style="overflow:visible;"/>
	</clipPath>
	<path style="clip-path:url(#SVGID_00000104695222772634937740000010649492267567364518_);" d="M639.55,168.6h22.13V92.45h92.57
		v76.15h22.13V-0.36h-22.13v72.1h-92.57v-72.1h-22.13V168.6z M523.66,119.1l60.92-81.86V168.6h21.89V-0.36h-19.99l-62.82,84.24
		L460.84-0.36h-20.23V168.6h22.13V37.24L523.66,119.1z M322.8,170.36h19.28L425.15-0.36h-19.28L322.8,170.36z M216.69,148.61V91.26
		h39.5c22.37,0,33.79,12.37,33.79,28.79c0,16.66-11.42,28.56-34.03,28.56H216.69z M216.69,72.22V19.63H250
		c18.09,0,28.79,12.14,28.79,26.42c0,14.99-10.71,26.18-28.79,26.18H216.69z M194.56,168.6H255c34.27,0,56.64-21.18,56.64-49.26
		c0-22.61-12.85-34.51-29.27-40.46c10.71-6.66,18.09-17.85,18.09-34.5c0-23.8-19.04-44.74-50.45-44.74h-55.45V168.6z M78.67,119.1
		l60.92-81.86V168.6h21.89V-0.36h-19.99L78.67,83.88L15.84-0.36H-4.38V168.6h22.13V37.24L78.67,119.1z"/>
</g>
</svg>
